<svg id="Ebene_1" data-name="Ebene 1" xmlns="http://www.w3.org/2000/svg" viewBox="0 0 630.14 338.86"><path d="M100.89,104.91a28,28,0,0,0-35.54,17.27l0,.06L1.54,307.31a28,28,0,0,0,52.93,18.22l63.79-185.07A28,28,0,0,0,100.89,104.91Z" transform="translate(-0.25 -5.53)"/><path d="M253.79,7.08a27.92,27.92,0,0,0-35.52,17.24l0,.09-97.51,282.9a28,28,0,0,0,17.33,35.55,27.7,27.7,0,0,0,9.11,1.53,28,28,0,0,0,26.44-18.86l97.51-282.9A28,28,0,0,0,253.79,7.08Z" transform="translate(-0.25 -5.53)"/><path d="M373,7.08a27.94,27.94,0,0,0-35.51,17.33h0L240,307.31a28,28,0,0,0,52.83,18.22L390.3,42.63A28,28,0,0,0,373,7.08Z" transform="translate(-0.25 -5.53)"/><path d="M458.25,104.91a27.92,27.92,0,0,0-35.52,17.24l0,.09L358.9,307.31a28,28,0,0,0,17.33,35.55,27.7,27.7,0,0,0,9.11,1.53,28,28,0,0,0,26.44-18.86l63.79-185.06A28,28,0,0,0,458.25,104.91Z" transform="translate(-0.25 -5.53)"/><path d="M611.54,7.08A27.92,27.92,0,0,0,576,24.32l0,.09-97.52,282.9a28,28,0,0,0,17.33,35.55,27.7,27.7,0,0,0,9.11,1.53,28,28,0,0,0,26.44-18.86l97.52-282.9A28,28,0,0,0,611.54,7.08Z" transform="translate(-0.25 -5.53)"/></svg>